{"title":"Mission Impossible Rogue Nation 2015 FULL TS x264-MenaceIISociet","uid":12205445,"size":839844367,"categoryP":"video","categoryS":"movies","magnet":"?xt=urn:btih:8a8d8e459a30c67a46da7b880302f1cbed110e2b&amp;dn=Mission+Impossible+Rogue+Nation+2015+FULL+TS+x264-MenaceIISociet&amp;tr=udp%3A%2F%2Ftracker.openbittorrent.com%3A80&amp;tr=udp%3A%2F%2Fopen.demonii.com%3A1337&amp;tr=udp%3A%2F%2Ftracker.coppersurfer.tk%3A6969&amp;tr=udp%3A%2F%2Fexodus.desync.com%3A6969","seeders":3,"leechers":1,"uploader":"SS132203","files":4,"time":1438938123,"description":"Mission Impossible Rogue Nation 2015 FULL TS x264-MenaceIISociety\n &lt;a href=&quot;\nhttp://imgsparrow.co/image/89k&quot; rel=&quot;nofollow&quot; target=&quot;_NEW&quot;&gt;\nhttp://imgsparrow.co/image/89k&lt;/a&gt;\n &lt;a href=&quot;\nhttp://imgsparrow.co/image/9b&quot; rel=&quot;nofollow&quot; target=&quot;_NEW&quot;&gt;\nhttp://imgsparrow.co/image/9b&lt;/a&gt;\n\nInfo : - \n\nThank MenaceIISociety Not ME!\n &lt;a href=&quot;\nhttp://www.imdb.com/title/tt2381249/&quot; rel=&quot;nofollow&quot; target=&quot;_NEW&quot;&gt;\nhttp://www.imdb.com/title/tt2381249/&lt;/a&gt;\nSource: 720p-HiVE-CM8 [THANKS]\n\nNOTE: Same as the xvid but in a smaller mp4, Improved a few things, 1st was color, dark areas http://imgur.com/a/YVpEF\n2nd was perspective, i pulled top right up more since this shot too so its pretty bang on now but cropped.http://s18.postimg.org/6xyl1sbpl/screenshot_43.png\nEnjoy.\n\nGeneral\nComplete name: Mission.Impossible.Rogue.Nation.2015.FULL.TS.x264-MenaceIISociety.mp4\nFormat: MPEG-4\nFormat profile: Base Media\nCodec ID: isom\nFile size: 790 MiB\nDuration: 2h 4mn\nOverall bit rate mode: Variable\nOverall bit rate: 886 Kbps\nEncoded date: UTC 2015-08-07 06:26:59\nTagged date: UTC 2015-08-07 06:26:59\n\nVideo\nID: 1\nFormat: AVC\nFormat/Info: Advanced Video Codec\nFormat profile: &lt;a class=&quot;__cf_email__&quot; href=&quot;/cdn-cgi/l/email-protection&quot; data-cfemail=&quot;94dcfdf3fcd4d8a0baa5&quot;&gt;[email&amp;#160;protected]&lt;/a&gt;&lt;script data-cfhash='f9e31' type=&quot;text/javascript&quot;&gt;\n/* &lt;![CDATA[ */!function(){try{var t=&quot;currentScript&quot;in document?document.currentScript:function(){for(var t=document.getElementsByTagName(&quot;script&quot;),e=t.length;e--;)if(t[e].getAttribute(&quot;data-cfhash&quot;))return t[e]}();if(t&amp;&amp;t.previousSibling){var e,r,n,i,c=t.previousSibling,a=c.getAttribute(&quot;data-cfemail&quot;);if(a){for(e=&quot;&quot;,r=parseInt(a.substr(0,2),16),n=2;a.length-n;n+=2)i=parseInt(a.substr(n,2),16)^r,e+=String.fromCharCode(i);e=document.createTextNode(e),c.parentNode.replaceChild(e,c)}t.parentNode.removeChild(t);}}catch(u){}}()/* ]]&gt; */&lt;/script&gt;\nFormat settings, CABAC: Yes\nFormat settings, ReFrames: 3 frames\nCodec ID: avc1\nCodec ID/Info: Advanced Video Coding\nDuration: 2h 4mn\nBit rate mode: Variable\nBit rate: 758 Kbps\nMaximum bit rate: 40.0 Mbps\nWidth: 720 pixels\nHeight: 256 pixels\nDisplay aspect ratio: 2.813\nFrame rate mode: Constant\nFrame rate: 25.000 fps\nColor space: YUV\nChroma subsampling: 4:2:0\nBit depth: 8 bits\nScan type: Progressive\nBits/(Pixel*Frame): 0.165\nStream size: 676 MiB (86%)\nWriting library: x264 core 148 r2579 73ae2d1\n\nAudio\nID: 2\nFormat: AAC\nFormat/Info: Advanced Audio Codec\nFormat profile: LC\nCodec ID: 40\nDuration: 2h 4mn\nBit rate mode: Variable\nBit rate: 124 Kbps\nMaximum bit rate: 149 Kbps\nChannel(s): 2 channels\nChannel positions: Front: L R\nSampling rate: 48.0 KHz\nCompression mode: Lossy\nStream size: 110 MiB (14%)\nEncoded date: UTC 2015-08-07 02:04:34\nTagged date: UTC 2015-08-07 06:28:07 \n\nScreens : - \n &lt;a href=&quot;\nhttp://imgsparrow.co/image/8tR&quot; rel=&quot;nofollow&quot; target=&quot;_NEW&quot;&gt;\nhttp://imgsparrow.co/image/8tR&lt;/a&gt; &lt;a href=&quot;\nhttp://imgsparrow.co/image/8tv&quot; rel=&quot;nofollow&quot; target=&quot;_NEW&quot;&gt;\nhttp://imgsparrow.co/image/8tv&lt;/a&gt; &lt;a href=&quot;\nhttp://imgsparrow.co/image/8tx&quot; rel=&quot;nofollow&quot; target=&quot;_NEW&quot;&gt;\nhttp://imgsparrow.co/image/8tx&lt;/a&gt; &lt;a href=&quot;\nhttp://imgsparrow.co/image/8tC&quot; rel=&quot;nofollow&quot; target=&quot;_NEW&quot;&gt;\nhttp://imgsparrow.co/image/8tC&lt;/a&gt; &lt;a href=&quot;\nhttp://imgsparrow.co/image/8t1&quot; rel=&quot;nofollow&quot; target=&quot;_NEW&quot;&gt;\nhttp://imgsparrow.co/image/8t1&lt;/a&gt; &lt;a href=&quot;\nhttp://imgsparrow.co/image/8E6&quot; rel=&quot;nofollow&quot; target=&quot;_NEW&quot;&gt;\nhttp://imgsparrow.co/image/8E6&lt;/a&gt; &lt;a href=&quot;\nhttp://imgsparrow.co/image/8E8&quot; rel=&quot;nofollow&quot; target=&quot;_NEW&quot;&gt;\nhttp://imgsparrow.co/image/8E8&lt;/a&gt; &lt;a href=&quot;\nhttp://imgsparrow.co/image/8E9&quot; rel=&quot;nofollow&quot; target=&quot;_NEW&quot;&gt;\nhttp://imgsparrow.co/image/8E9&lt;/a&gt; &lt;a href=&quot;\nhttp://imgsparrow.co/image/8EL&quot; rel=&quot;nofollow&quot; target=&quot;_NEW&quot;&gt;\nhttp://imgsparrow.co/image/8EL&lt;/a&gt; &lt;a href=&quot;\nhttp://imgsparrow.co/image/8EN&quot; rel=&quot;nofollow&quot; target=&quot;_NEW&quot;&gt;\nhttp://imgsparrow.co/image/8EN&lt;/a&gt;\n &lt;a href=&quot;\nhttp://imgsparrow.co/image/N2&quot; rel=&quot;nofollow&quot; target=&quot;_NEW&quot;&gt;\nhttp://imgsparrow.co/image/N2&lt;/a&gt;","torrent":{"xt":"urn:btih:8a8d8e459a30c67a46da7b880302f1cbed110e2b","amp;dn":"Mission+Impossible+Rogue+Nation+2015+FULL+TS+x264-MenaceIISociet","amp;tr":["udp%3A%2F%2Ftracker.openbittorrent.com%3A80","udp%3A%2F%2Fopen.demonii.com%3A1337","udp%3A%2F%2Ftracker.coppersurfer.tk%3A6969","udp%3A%2F%2Fexodus.desync.com%3A6969"],"infoHash":"8a8d8e459a30c67a46da7b880302f1cbed110e2b","infoHashBuffer":{"type":"Buffer","data":[138,141,142,69,154,48,198,122,70,218,123,136,3,2,241,203,237,17,14,43]},"announce":[],"urlList":[]}}